{"glyphs":{"0":{"ha":833,"x_min":0,"x_max":0,"o":"m 418 989 b 750 485 635 989 750 804 b 415 -17 750 164 631 -17 b 83 488 199 -17 83 168 b 418 989 83 808 203 989 m 417 875 b 215 489 293 875 215 776 b 417 97 215 233 290 97 b 618 483 540 97 618 196 b 417 875 618 739 543 875 "},"1":{"ha":833,"x_min":0,"x_max":0,"o":"m 524 972 l 524 111 l 689 111 l 689 0 l 200 0 l 200 111 l 399 111 l 399 813 l 213 672 l 144 765 l 432 972 "},"2":{"ha":833,"x_min":0,"x_max":0,"o":"m 122 0 b 118 51 119 17 118 33 b 556 743 118 410 556 535 b 401 878 556 821 492 878 b 206 793 324 878 261 844 l 136 878 b 415 989 210 944 297 989 b 688 751 579 989 688 885 b 258 114 688 483 289 360 l 686 114 l 686 0 "},"3":{"ha":833,"x_min":0,"x_max":0,"o":"m 360 -17 b 89 67 239 -17 151 21 l 146 171 b 361 97 197 132 263 97 b 560 267 483 97 560 169 b 297 456 560 368 479 456 l 219 456 l 219 557 l 292 557 b 533 732 456 557 533 643 b 363 878 533 818 458 878 b 164 808 275 878 207 843 l 113 907 b 372 989 168 944 256 989 b 660 749 554 989 660 876 b 503 519 660 639 603 568 b 689 271 619 475 689 386 b 360 -17 689 125 583 -17 "},"4":{"ha":833,"x_min":0,"x_max":0,"o":"m 629 207 l 629 0 l 504 0 l 504 207 l 89 207 l 89 307 l 379 982 l 488 936 l 225 321 l 504 321 l 504 597 l 629 597 l 629 321 l 744 321 l 744 207 "},"5":{"ha":833,"x_min":0,"x_max":0,"o":"m 715 301 b 375 -17 715 115 579 -17 b 118 56 261 -17 185 10 l 183 163 b 376 97 235 125 297 97 b 583 288 500 97 583 176 b 356 483 583 403 501 483 l 183 483 l 183 972 l 664 972 l 664 860 l 301 860 l 301 596 l 371 596 b 715 301 586 596 715 474 "},"6":{"ha":833,"x_min":0,"x_max":0,"o":"m 597 861 b 228 515 394 861 257 729 b 467 615 279 565 363 615 b 738 325 621 615 738 501 b 422 -17 738 121 606 -17 b 97 394 246 -17 97 113 b 596 975 97 710 267 975 b 649 972 613 975 633 974 l 649 858 b 597 861 633 860 614 861 m 435 511 b 225 404 354 511 281 469 l 225 374 b 428 97 228 200 315 97 b 613 310 539 97 613 189 b 435 511 613 429 542 511 "},"7":{"ha":833,"x_min":0,"x_max":0,"o":"m 271 0 b 597 858 271 425 386 644 l 129 858 l 129 972 l 746 972 l 746 872 b 411 0 492 625 411 431 "},"8":{"ha":833,"x_min":0,"x_max":0,"o":"m 282 524 b 129 750 183 578 129 644 b 413 989 129 890 253 989 b 703 751 583 989 703 885 b 544 525 703 639 640 574 b 756 263 681 467 756 383 b 424 -17 756 94 614 -17 b 78 254 211 -17 78 103 b 282 524 78 375 140 463 m 628 260 b 406 469 628 349 544 419 b 206 276 300 444 206 375 b 425 94 206 172 299 94 b 628 260 543 94 628 163 m 250 753 b 431 571 250 672 321 604 b 582 739 511 599 582 657 b 413 886 582 824 508 886 b 250 753 318 886 250 832 "},"9":{"ha":833,"x_min":0,"x_max":0,"o":"m 188 185 b 374 97 243 126 303 97 b 588 467 488 97 588 207 b 378 375 531 414 460 375 b 90 672 231 375 90 478 b 404 989 90 847 217 989 b 614 908 500 989 568 956 b 715 508 681 839 715 750 b 367 -17 715 139 565 -17 b 106 92 260 -17 175 24 m 399 478 b 588 568 468 478 538 518 l 588 610 b 400 878 588 785 514 878 b 211 678 294 878 211 799 b 399 478 211 553 299 478 "},"\u0000":{"ha":0,"x_min":0,"x_max":0,"o":""},"\u0001":{"ha":0,"x_min":0,"x_max":0,"o":""},"\u0002":{"ha":0,"x_min":0,"x_max":0,"o":""},"\u0003":{"ha":0,"x_min":0,"x_max":0,"o":""},"\u0004":{"ha":0,"x_min":0,"x_max":0,"o":""},"\u0005":{"ha":0,"x_min":0,"x_max":0,"o":""},"\u0006":{"ha":0,"x_min":0,"x_max":0,"o":""},"\u0007":{"ha":0,"x_min":0,"x_max":0,"o":""},"\b":{"ha":0,"x_min":0,"x_max":0,"o":""},"\t":{"ha":0,"x_min":0,"x_max":0,"o":""},"\r":{"ha":417,"x_min":0,"x_max":0,"o":""},"\u0010":{"ha":0,"x_min":0,"x_max":0,"o":""},"\u0011":{"ha":0,"x_min":0,"x_max":0,"o":""},"\u0012":{"ha":0,"x_min":0,"x_max":0,"o":""},"\u0013":{"ha":0,"x_min":0,"x_max":0,"o":""},"\u0014":{"ha":0,"x_min":0,"x_max":0,"o":""},"\u0015":{"ha":0,"x_min":0,"x_max":0,"o":""},"\u0016":{"ha":0,"x_min":0,"x_max":0,"o":""},"\u0017":{"ha":0,"x_min":0,"x_max":0,"o":""},"\u0018":{"ha":0,"x_min":0,"x_max":0,"o":""},"\u0019":{"ha":0,"x_min":0,"x_max":0,"o":""}," ":{"ha":417,"x_min":0,"x_max":0,"o":""},"!":{"ha":436,"x_min":0,"x_max":0,"o":"m 147 1013 l 286 1013 l 286 667 l 268 288 l 165 288 l 147 667 m 125 76 b 218 169 125 133 160 169 b 311 76 267 169 311 126 b 218 -17 311 21 272 -17 b 125 76 168 -17 125 26 "},"\"":{"ha":417,"x_min":0,"x_max":0,"o":"m 157 972 l 146 663 l 47 663 l 36 972 m 381 972 l 369 663 l 271 663 l 260 972 "},"#":{"ha":1042,"x_min":0,"x_max":0,"o":"m 194 0 l 225 172 l 99 172 l 115 274 l 243 274 l 303 621 l 176 621 l 193 722 l 321 722 l 351 894 l 463 894 l 432 722 l 704 722 l 735 894 l 846 894 l 815 722 l 943 722 l 926 621 l 797 621 l 738 274 l 864 274 l 847 172 l 719 172 l 689 0 l 578 0 l 608 172 l 336 172 l 306 0 m 354 274 l 626 274 l 686 621 l 414 621 "},"$":{"ha":833,"x_min":0,"x_max":0,"o":"m 153 217 b 390 129 214 165 288 129 b 589 271 513 129 589 185 b 385 453 589 344 556 388 b 136 718 200 524 136 590 b 390 946 136 835 228 931 l 379 1104 l 501 1104 l 489 946 b 706 888 571 940 639 919 l 661 783 b 438 844 603 817 522 844 b 256 725 325 844 256 796 b 450 561 256 658 283 622 b 714 286 650 488 714 407 b 458 28 714 138 607 47 l 471 -132 l 349 -132 l 360 24 b 92 114 250 31 153 64 "},"%":{"ha":1250,"x_min":0,"x_max":0,"o":"m 276 -3 l 883 1028 l 967 975 l 360 -56 m 528 681 b 289 375 528 489 443 375 b 53 681 135 375 53 488 b 290 982 53 872 138 982 b 528 681 443 982 528 872 m 413 681 b 289 890 413 818 368 890 b 168 681 214 890 168 836 b 290 468 168 542 213 468 b 413 681 368 468 413 522 m 1197 297 b 958 -8 1197 106 1113 -8 b 722 297 804 -8 722 104 b 960 599 722 489 807 599 b 1197 297 1113 599 1197 489 m 1082 297 b 958 507 1082 435 1038 507 b 838 297 883 507 838 453 b 960 85 838 158 882 85 b 1082 297 1038 85 1082 139 "},"&":{"ha":1024,"x_min":0,"x_max":0,"o":"m 379 467 b 257 265 297 410 257 351 b 450 97 257 169 338 97 b 653 204 529 97 600 138 m 329 757 b 419 578 329 694 357 639 b 579 768 535 638 579 692 b 457 889 579 835 531 889 b 329 757 383 889 329 832 m 317 533 b 214 756 247 608 214 668 b 460 989 214 888 308 989 b 694 781 608 989 694 894 b 481 513 694 663 628 585 l 710 294 b 904 569 768 400 726 569 l 935 471 b 790 222 819 471 854 318 l 954 72 l 876 -11 l 729 128 b 431 -17 654 42 568 -17 b 125 247 265 -17 125 88 b 317 533 125 364 179 457 "},"'":{"ha":208,"x_min":0,"x_max":0,"o":"m 165 972 l 154 664 l 56 664 l 44 972 "},"(":{"ha":417,"x_min":0,"x_max":0,"o":"m 211 444 b 336 -129 211 219 267 31 l 263 -171 b 79 444 147 33 79 229 b 263 1060 79 675 149 865 l 336 1018 b 211 444 267 863 211 669 "},")":{"ha":417,"x_min":0,"x_max":0,"o":"m 206 444 b 81 1018 206 669 150 863 l 154 1060 b 338 444 268 865 338 675 b 154 -171 338 229 269 33 l 81 -129 b 206 444 150 31 206 219 "},"*":{"ha":625,"x_min":0,"x_max":0,"o":"m 271 857 l 258 1028 l 369 1028 l 357 860 l 515 921 l 547 817 l 386 776 l 493 646 l 404 582 l 315 725 l 224 581 l 136 646 l 242 774 l 79 815 l 113 921 "},"+":{"ha":833,"x_min":0,"x_max":0,"o":"m 476 422 l 476 196 l 358 196 l 358 422 l 146 422 l 146 531 l 358 531 l 358 757 l 476 757 l 476 531 l 688 531 l 688 422 "},",":{"ha":417,"x_min":0,"x_max":0,"o":"m 306 90 b 110 -222 286 -51 214 -157 l 42 -183 b 183 125 115 -89 158 1 "},"-":{"ha":833,"x_min":0,"x_max":0,"o":"m 181 419 l 181 533 l 653 533 l 653 419 "},".":{"ha":417,"x_min":0,"x_max":0,"o":"m 115 76 b 208 169 115 133 150 169 b 301 76 257 169 301 126 b 208 -17 301 21 263 -17 b 115 76 158 -17 115 26 "},"/":{"ha":625,"x_min":0,"x_max":0,"o":"m 65 -64 l 457 1074 l 560 1039 l 168 -99 "},":":{"ha":417,"x_min":0,"x_max":0,"o":"m 115 646 b 208 739 115 703 150 739 b 301 646 257 739 301 696 b 208 553 301 590 263 553 b 115 646 158 553 115 596 m 115 76 b 208 169 115 133 150 169 b 301 76 257 169 301 126 b 208 -17 301 21 263 -17 b 115 76 158 -17 115 26 "},";":{"ha":417,"x_min":0,"x_max":0,"o":"m 285 90 b 89 -222 265 -51 193 -157 l 21 -183 b 163 125 94 -89 138 1 m 119 646 b 213 739 119 703 154 739 b 306 646 261 739 306 696 b 213 553 306 590 267 553 b 119 646 163 553 119 596 "},"<":{"ha":833,"x_min":0,"x_max":0,"o":"m 663 257 l 600 158 l 157 436 l 157 515 l 601 794 l 663 697 l 303 476 "},"=":{"ha":833,"x_min":0,"x_max":0,"o":"m 143 549 l 143 658 l 690 658 l 690 549 m 143 296 l 143 406 l 690 406 l 690 296 "},">":{"ha":833,"x_min":0,"x_max":0,"o":"m 232 794 l 676 515 l 676 436 l 233 158 l 171 257 l 531 476 l 171 697 "},"?":{"ha":682,"x_min":0,"x_max":0,"o":"m 63 899 b 350 1044 136 989 222 1044 b 613 818 504 1044 613 943 b 339 365 613 582 339 576 l 339 288 l 231 288 b 217 390 221 318 217 358 b 478 808 217 626 478 646 b 339 931 478 874 424 931 b 153 826 263 931 203 892 m 199 76 b 292 169 199 133 233 169 b 385 76 340 169 385 126 b 292 -17 385 21 346 -17 b 199 76 242 -17 199 26 "},"@":{"ha":1458,"x_min":0,"x_max":0,"o":"m 1036 -17 b 872 115 943 -17 883 35 b 654 0 821 53 747 0 b 392 297 514 0 392 110 b 711 669 392 508 533 669 b 914 567 807 669 875 626 l 926 660 l 1036 660 l 979 206 b 975 157 976 185 975 169 b 1047 72 975 104 996 72 b 1229 432 1144 72 1229 221 b 767 878 1229 689 1038 878 b 228 299 421 878 228 583 b 722 -211 228 -24 440 -211 b 1068 -125 863 -211 969 -174 l 1108 -231 b 714 -322 1013 -282 869 -322 b 100 294 358 -322 100 -104 b 775 989 100 664 365 989 b 1357 439 1124 989 1357 750 b 1036 -17 1357 172 1222 -17 m 692 103 b 865 197 764 103 829 151 l 899 472 b 725 572 863 531 800 572 b 511 315 613 572 511 467 b 692 103 511 175 592 103 "},"A":{"ha":928,"x_min":0,"x_max":0,"o":"m 14 35 l 394 972 l 539 972 l 914 35 l 793 -14 l 685 264 l 235 264 l 126 -11 m 276 375 l 642 375 l 460 842 "},"B":{"ha":875,"x_min":0,"x_max":0,"o":"m 125 969 b 411 983 190 976 286 983 b 781 733 649 983 781 888 b 621 515 781 631 725 561 b 813 278 746 471 813 393 b 406 -11 813 101 671 -11 b 125 3 293 -11 185 -6 m 415 99 b 678 272 581 99 678 160 b 415 450 678 383 583 450 l 257 450 l 257 107 b 415 99 306 101 360 99 m 410 553 b 649 717 556 553 649 619 b 410 876 649 821 557 876 b 257 869 349 876 300 874 l 257 553 "},"C":{"ha":825,"x_min":0,"x_max":0,"o":"m 204 488 b 514 99 204 254 333 99 b 729 158 604 99 667 122 l 769 49 b 499 -17 701 11 615 -17 b 69 482 244 -17 69 175 b 515 989 69 779 244 989 b 749 939 608 989 682 971 l 708 828 b 514 874 651 856 594 874 b 204 488 335 874 204 732 "},"D":{"ha":947,"x_min":0,"x_max":0,"o":"m 125 969 b 396 983 211 978 289 983 b 878 488 728 983 878 760 b 381 -11 878 217 728 -11 b 125 3 275 -11 203 -6 m 392 869 b 257 863 338 869 294 867 l 257 111 b 385 104 296 106 339 104 b 743 488 635 104 743 263 b 392 869 743 688 633 869 "},"E":{"ha":771,"x_min":0,"x_max":0,"o":"m 125 972 l 708 972 l 708 858 l 257 858 l 257 563 l 646 563 l 646 451 l 257 451 l 257 114 l 708 114 l 708 0 l 125 0 "},"F":{"ha":743,"x_min":0,"x_max":0,"o":"m 125 972 l 701 972 l 701 858 l 257 858 l 257 561 l 628 561 l 628 453 l 257 453 l 257 0 l 125 0 "},"G":{"ha":936,"x_min":0,"x_max":0,"o":"m 519 515 l 846 515 l 846 0 l 729 0 l 729 97 b 457 -17 664 40 569 -17 b 69 461 232 -17 69 168 b 514 989 69 771 233 989 b 808 910 635 989 725 956 l 760 800 b 507 874 682 843 606 874 b 204 469 332 874 204 731 b 488 99 204 238 319 99 b 721 199 590 99 674 151 l 721 411 l 519 411 "},"H":{"ha":993,"x_min":0,"x_max":0,"o":"m 736 443 l 257 443 l 257 0 l 125 0 l 125 972 l 257 972 l 257 557 l 736 557 l 736 972 l 868 972 l 868 0 l 736 0 "},"I":{"ha":382,"x_min":0,"x_max":0,"o":"m 125 0 l 125 972 l 257 972 l 257 0 "},"J":{"ha":597,"x_min":0,"x_max":0,"o":"m 354 972 l 486 972 l 486 321 b 214 -17 486 85 376 -17 b 0 64 129 -17 50 15 l 64 165 b 210 97 101 126 156 97 b 354 307 299 97 354 154 "},"K":{"ha":835,"x_min":0,"x_max":0,"o":"m 821 78 l 729 -17 l 257 447 l 257 0 l 125 0 l 125 972 l 257 972 l 257 529 l 671 976 l 760 894 l 381 500 "},"L":{"ha":710,"x_min":0,"x_max":0,"o":"m 703 0 l 125 0 l 125 972 l 257 972 l 257 118 l 703 118 "},"M":{"ha":1158,"x_min":0,"x_max":0,"o":"m 901 804 l 642 219 l 511 219 l 250 804 l 250 0 l 125 0 l 125 972 l 310 972 l 579 357 l 844 972 l 1033 972 l 1033 0 l 901 0 "},"N":{"ha":979,"x_min":0,"x_max":0,"o":"m 250 803 l 250 0 l 125 0 l 125 972 l 300 972 l 729 164 l 729 972 l 854 972 l 854 0 l 682 0 "},"O":{"ha":1057,"x_min":0,"x_max":0,"o":"m 69 488 b 528 989 69 772 240 989 b 988 488 814 989 988 764 b 528 -17 988 210 815 -17 b 69 488 240 -17 69 210 m 204 488 b 528 97 204 286 324 97 b 853 488 742 97 853 265 b 528 875 853 686 732 875 b 204 488 324 875 204 707 "},"P":{"ha":807,"x_min":0,"x_max":0,"o":"m 125 969 b 393 983 201 978 294 983 b 772 688 635 983 772 860 b 365 363 772 479 607 363 b 257 367 326 363 290 364 l 257 0 l 125 0 m 382 472 b 642 676 547 472 642 551 b 390 872 642 796 551 872 b 257 867 340 872 296 871 l 257 479 b 382 472 286 475 329 472 "},"Q":{"ha":1057,"x_min":0,"x_max":0,"o":"m 69 488 b 521 989 69 774 238 989 b 974 488 803 989 974 764 b 871 161 974 343 926 239 l 994 93 l 935 -17 l 800 83 b 521 -17 731 26 639 -17 b 69 488 238 -17 69 210 m 596 213 l 651 314 l 776 224 b 839 488 821 296 839 379 b 521 875 839 686 721 875 b 204 488 321 875 204 708 b 518 97 204 286 318 97 b 701 146 594 97 657 118 "},"R":{"ha":857,"x_min":0,"x_max":0,"o":"m 692 -17 l 571 247 b 278 429 510 379 422 429 l 257 429 l 257 0 l 125 0 l 125 969 b 410 983 224 979 307 983 b 767 725 646 983 767 876 b 532 469 767 590 683 510 b 710 269 607 436 653 392 l 815 42 m 410 872 b 257 867 347 872 297 869 l 257 540 l 410 540 b 635 713 543 540 635 601 b 410 872 635 804 554 872 "},"S":{"ha":789,"x_min":0,"x_max":0,"o":"m 108 193 b 367 99 175 138 256 99 b 583 253 500 99 583 158 b 361 450 583 332 547 379 b 90 739 160 526 90 599 b 421 989 90 876 208 989 b 710 922 535 989 622 965 l 661 810 b 418 875 599 846 510 875 b 221 746 296 875 221 822 b 432 568 221 674 251 635 b 719 268 649 488 719 400 b 367 -17 719 88 572 -17 b 42 82 232 -17 117 22 "},"T":{"ha":757,"x_min":0,"x_max":0,"o":"m 14 972 l 743 972 l 743 856 l 444 856 l 444 0 l 313 0 l 313 856 l 14 856 "},"U":{"ha":931,"x_min":0,"x_max":0,"o":"m 699 972 l 826 972 l 826 375 b 464 -17 826 129 682 -17 b 104 369 239 -17 104 121 l 104 972 l 236 972 l 236 390 b 464 99 236 204 311 99 b 699 390 621 99 699 200 "},"V":{"ha":889,"x_min":0,"x_max":0,"o":"m 14 938 l 143 988 l 449 144 l 756 983 l 875 938 l 519 0 l 371 0 "},"W":{"ha":1310,"x_min":0,"x_max":0,"o":"m 21 940 l 151 982 l 371 140 l 578 871 l 743 871 l 949 140 l 1167 978 l 1289 940 l 1026 0 l 863 0 l 657 731 l 449 0 l 285 0 "},"X":{"ha":843,"x_min":0,"x_max":0,"o":"m 340 494 l 28 903 l 138 985 l 419 590 l 699 981 l 801 903 l 499 501 l 829 68 l 722 -14 l 415 403 l 118 -11 l 14 68 "},"Y":{"ha":832,"x_min":0,"x_max":0,"o":"m 422 492 l 714 979 l 818 918 l 483 369 l 483 0 l 351 0 l 351 369 l 14 918 l 125 985 "},"Z":{"ha":799,"x_min":0,"x_max":0,"o":"m 56 103 l 572 858 l 79 858 l 79 972 l 724 972 l 724 872 l 207 117 l 743 117 l 743 0 l 56 0 "},"[":{"ha":417,"x_min":0,"x_max":0,"o":"m 111 1028 l 354 1028 l 354 924 l 222 924 l 222 -35 l 354 -35 l 354 -139 l 111 -139 "},"\\":{"ha":625,"x_min":0,"x_max":0,"o":"m 457 -99 l 65 1039 l 168 1074 l 560 -64 "},"]":{"ha":417,"x_min":0,"x_max":0,"o":"m 63 -139 l 63 -35 l 194 -35 l 194 924 l 63 924 l 63 1028 l 306 1028 l 306 -139 "},"^":{"ha":833,"x_min":0,"x_max":0,"o":"m 208 708 l 131 794 l 389 1028 l 447 1028 l 703 794 l 624 708 l 418 913 "},"_":{"ha":833,"x_min":0,"x_max":0,"o":"m 0 -76 l 833 -76 l 833 -160 l 0 -160 "},"`":{"ha":432,"x_min":0,"x_max":0,"o":"m 333 799 l 56 940 l 114 1057 l 376 883 "},"a":{"ha":857,"x_min":0,"x_max":0,"o":"m 63 357 b 404 739 63 572 203 739 b 606 664 488 739 556 706 l 606 722 l 719 722 l 719 175 b 801 90 719 104 761 90 l 775 -7 b 614 101 685 -7 632 31 b 388 -17 571 42 500 -17 b 63 357 207 -17 63 129 m 415 94 b 594 185 485 94 551 132 l 594 572 b 417 631 544 607 483 631 b 190 361 283 631 190 522 b 415 94 190 204 286 94 "},"b":{"ha":825,"x_min":0,"x_max":0,"o":"m 111 1028 l 236 1028 l 236 647 b 444 739 274 689 346 739 b 763 368 611 739 763 603 b 436 -17 763 138 600 -17 b 228 60 353 -17 275 18 l 228 0 l 111 0 m 635 364 b 417 631 635 531 536 631 b 236 536 338 631 269 582 l 236 150 b 403 94 279 117 338 94 b 635 364 538 94 635 201 "},"c":{"ha":656,"x_min":0,"x_max":0,"o":"m 572 590 b 419 628 519 617 476 628 b 190 364 289 628 190 529 b 411 94 190 214 279 94 b 582 140 481 94 525 110 l 621 35 b 403 -17 563 3 493 -17 b 63 361 196 -17 63 139 b 413 739 63 569 197 739 b 610 696 494 739 553 724 "},"d":{"ha":851,"x_min":0,"x_max":0,"o":"m 385 -17 b 63 357 206 -17 63 129 b 383 739 63 576 208 739 b 589 650 479 739 550 690 l 589 1028 l 714 1028 l 714 175 b 796 90 714 104 756 90 l 769 -7 b 608 99 681 -7 628 29 b 385 -17 567 40 496 -17 m 413 94 b 589 182 481 94 546 131 l 589 540 b 411 631 554 585 488 631 b 190 361 276 631 190 513 b 413 94 190 207 286 94 "},"e":{"ha":756,"x_min":0,"x_max":0,"o":"m 190 310 b 415 94 207 175 288 94 b 624 142 499 94 563 114 l 653 35 b 400 -17 586 4 503 -17 b 63 361 193 -17 63 122 b 389 739 63 578 194 739 b 700 404 596 739 700 588 b 696 310 700 371 699 340 m 386 631 b 189 411 278 631 203 554 l 585 411 b 386 631 585 551 510 631 "},"f":{"ha":483,"x_min":0,"x_max":0,"o":"m 515 893 b 379 933 476 914 433 933 b 250 789 301 933 250 883 l 250 696 l 464 696 l 464 588 l 250 588 l 250 0 l 125 0 l 125 588 l 14 588 l 14 696 l 125 696 l 125 781 b 371 1044 125 943 225 1044 b 553 999 447 1044 501 1025 "},"g":{"ha":813,"x_min":0,"x_max":0,"o":"m 397 739 b 594 667 479 739 546 707 l 594 722 l 708 722 l 708 17 b 376 -322 708 -222 575 -322 b 144 -261 290 -322 207 -301 l 190 -153 b 376 -214 235 -187 292 -214 b 588 4 507 -214 588 -149 l 588 93 b 383 0 550 49 479 0 b 63 364 219 0 63 132 b 397 739 63 581 213 739 m 411 111 b 583 194 485 111 546 150 l 583 572 b 410 631 542 601 486 631 b 190 371 296 631 190 536 b 411 111 190 213 294 111 "},"h":{"ha":822,"x_min":0,"x_max":0,"o":"m 236 607 b 475 739 288 682 367 739 b 718 471 638 739 718 632 l 718 0 l 593 0 l 593 457 b 456 629 593 561 543 629 b 236 478 369 629 289 560 l 236 0 l 111 0 l 111 1028 l 236 1028 "},"i":{"ha":347,"x_min":0,"x_max":0,"o":"m 236 0 l 111 0 l 111 722 l 236 722 m 174 846 b 86 933 125 846 86 886 b 174 1021 86 986 119 1021 b 261 933 222 1021 261 981 b 174 846 261 881 228 846 "},"j":{"ha":360,"x_min":0,"x_max":0,"o":"m 126 722 l 251 722 l 251 -79 b 24 -322 251 -249 150 -322 b -118 -290 -33 -322 -81 -311 l -87 -186 b 8 -214 -64 -201 -26 -214 b 126 -67 86 -214 126 -162 m 189 846 b 101 933 140 846 101 886 b 189 1021 101 986 135 1021 b 276 933 238 1021 276 981 b 189 846 276 881 243 846 "},"k":{"ha":710,"x_min":0,"x_max":0,"o":"m 111 1028 l 236 1028 l 236 440 l 563 736 l 635 657 l 356 410 l 696 69 l 610 -14 l 236 371 l 236 0 l 111 0 "},"l":{"ha":481,"x_min":0,"x_max":0,"o":"m 229 239 b 347 92 229 139 274 92 b 443 113 382 92 418 101 l 474 11 b 331 -17 440 -4 390 -17 b 104 226 203 -17 104 53 l 104 1028 l 229 1028 "},"m":{"ha":1271,"x_min":0,"x_max":0,"o":"m 232 601 b 467 739 283 679 364 739 b 685 586 581 739 654 679 b 933 739 742 671 817 739 b 1167 471 1090 739 1167 629 l 1167 0 l 1042 0 l 1042 461 b 911 629 1042 561 992 629 b 701 474 828 629 754 557 l 701 0 l 576 0 l 576 461 b 446 629 576 561 526 629 b 236 478 364 629 289 560 l 236 0 l 111 0 l 111 722 l 232 722 "},"n":{"ha":822,"x_min":0,"x_max":0,"o":"m 232 601 b 475 739 283 679 364 739 b 718 471 638 739 718 632 l 718 0 l 593 0 l 593 457 b 454 629 593 561 542 629 b 236 478 368 629 289 560 l 236 0 l 111 0 l 111 722 l 232 722 "},"o":{"ha":831,"x_min":0,"x_max":0,"o":"m 647 361 b 415 628 647 506 547 628 b 183 364 269 628 183 522 b 415 94 183 218 283 94 b 647 361 561 94 647 203 m 56 361 b 415 739 56 594 211 739 b 775 364 617 739 775 593 b 415 -17 775 133 621 -17 b 56 361 208 -17 56 138 "},"p":{"ha":851,"x_min":0,"x_max":0,"o":"m 82 722 b 242 621 168 722 221 688 b 471 739 269 663 350 739 b 789 368 638 739 789 603 b 474 -17 789 138 639 -17 b 263 68 388 -17 311 24 l 263 -306 l 138 -306 l 138 538 b 56 625 138 600 104 625 m 661 364 b 443 631 661 531 563 631 b 263 536 364 631 296 582 l 263 181 b 449 94 310 131 374 94 b 661 364 575 94 661 203 "},"q":{"ha":825,"x_min":0,"x_max":0,"o":"m 714 722 l 714 -306 l 589 -306 l 589 74 b 386 -17 550 32 479 -17 b 63 358 218 -17 63 115 b 399 739 63 586 215 739 b 600 664 482 739 550 706 l 600 722 m 411 631 b 190 363 292 631 190 532 b 414 94 190 194 296 94 b 589 182 488 94 551 136 l 589 572 b 411 631 539 607 478 631 "},"r":{"ha":554,"x_min":0,"x_max":0,"o":"m 503 601 b 440 613 486 608 464 613 b 236 338 338 613 236 526 l 236 0 l 111 0 l 111 722 l 232 722 l 232 565 b 464 739 267 656 340 739 b 540 731 492 739 521 736 "},"s":{"ha":650,"x_min":0,"x_max":0,"o":"m 101 163 b 310 92 149 121 226 92 b 467 183 413 92 467 129 b 286 325 467 240 433 275 b 83 540 150 371 83 428 b 358 739 83 651 186 739 b 579 688 451 739 522 717 l 544 585 b 353 635 494 614 431 635 b 206 542 257 635 206 588 b 349 433 206 497 236 471 b 594 193 532 372 594 304 b 306 -17 594 64 481 -17 b 49 58 196 -17 106 14 "},"t":{"ha":551,"x_min":0,"x_max":0,"o":"m 168 924 l 264 924 l 264 696 l 464 696 l 464 588 l 264 588 l 264 239 b 379 94 264 131 315 94 b 503 132 425 94 467 111 l 538 32 b 364 -17 500 10 432 -17 b 139 249 225 -17 139 78 l 139 588 l 14 588 l 14 696 l 142 696 "},"u":{"ha":839,"x_min":0,"x_max":0,"o":"m 757 -7 b 597 96 668 -7 617 29 b 347 -17 532 29 446 -17 b 104 253 222 -17 104 56 l 104 722 l 229 722 l 229 269 b 371 94 229 157 278 94 b 576 179 447 94 521 128 l 576 722 l 701 722 l 701 188 b 783 90 701 107 742 90 "},"v":{"ha":740,"x_min":0,"x_max":0,"o":"m 14 689 l 128 736 l 374 142 l 619 736 l 726 689 l 435 0 l 304 0 "},"w":{"ha":1136,"x_min":0,"x_max":0,"o":"m 990 729 l 1101 689 l 872 0 l 735 0 l 568 538 l 400 0 l 263 0 l 35 689 l 150 729 l 336 142 l 506 671 l 640 671 l 806 142 "},"x":{"ha":694,"x_min":0,"x_max":0,"o":"m 271 367 l 24 653 l 121 738 l 344 449 l 564 732 l 657 653 l 417 372 l 681 68 l 586 -12 l 343 289 l 103 -10 l 14 68 "},"y":{"ha":726,"x_min":0,"x_max":0,"o":"m 129 -322 b 7 -294 74 -322 31 -310 l 35 -190 b 132 -214 57 -203 90 -214 b 324 -29 210 -214 268 -175 l 356 54 l 289 54 l 7 689 l 118 739 l 388 138 l 597 733 l 713 689 l 447 -36 b 129 -322 365 -258 268 -322 "},"z":{"ha":656,"x_min":0,"x_max":0,"o":"m 57 722 l 600 722 l 600 626 l 203 111 l 607 111 l 607 0 l 49 0 l 49 99 l 447 614 l 57 614 "},"{":{"ha":417,"x_min":0,"x_max":0,"o":"m 10 489 b 143 725 115 503 143 554 b 407 1053 143 954 228 1036 l 407 974 b 264 731 303 949 264 900 b 106 444 264 524 222 472 b 264 158 222 417 264 365 b 407 -85 264 -11 303 -60 l 407 -164 b 143 164 228 -147 143 -65 b 10 400 143 335 115 386 "},"|":{"ha":417,"x_min":0,"x_max":0,"o":"m 154 -139 l 154 1069 l 263 1069 l 263 -139 "},"}":{"ha":417,"x_min":0,"x_max":0,"o":"m 311 444 b 153 731 194 472 153 524 b 10 974 153 900 114 949 l 10 1053 b 274 725 189 1036 274 954 b 407 489 274 554 301 503 l 407 400 b 274 164 301 386 274 335 b 10 -164 274 -65 189 -147 l 10 -85 b 153 158 114 -60 153 -11 b 311 444 153 365 194 417 "},"~":{"ha":833,"x_min":0,"x_max":0,"o":"m 728 447 b 535 351 674 396 608 351 b 289 432 439 351 371 432 b 154 367 233 432 185 394 l 106 454 b 286 543 144 493 214 543 b 529 463 388 543 450 463 b 678 539 594 463 640 501 l 728 447 "}," ":{"ha":417,"x_min":0,"x_max":0,"o":""},"¡":{"ha":436,"x_min":0,"x_max":0,"o":"m 146 57 l 164 436 l 267 436 l 285 57 l 285 -306 l 146 -306 m 125 646 b 218 739 125 703 160 739 b 311 646 267 739 311 696 b 218 553 311 590 272 553 b 125 646 168 553 125 596 "},"¢":{"ha":625,"x_min":0,"x_max":0,"o":"m 557 629 b 404 667 504 656 461 667 b 175 403 274 667 175 568 b 396 133 175 253 264 133 b 567 179 465 133 510 149 l 606 74 b 442 24 560 49 507 31 l 454 -132 l 332 -132 l 343 25 b 47 400 161 46 47 193 b 343 774 47 590 160 749 l 332 925 l 454 925 l 443 776 b 594 735 501 771 549 757 "},"£":{"ha":833,"x_min":0,"x_max":0,"o":"m 714 0 l 121 0 l 121 101 b 224 446 196 207 221 278 l 119 446 l 119 551 l 225 551 l 225 721 b 478 989 225 889 324 989 b 693 929 578 989 643 958 l 651 831 b 490 883 607 858 551 883 b 344 706 408 883 344 836 l 344 551 l 578 551 l 578 446 l 343 446 b 253 115 339 279 308 193 l 714 115 "},"¤":{"ha":833,"x_min":0,"x_max":0,"o":"m 417 739 b 542 713 463 739 504 729 l 618 814 l 706 740 l 625 649 b 688 469 664 601 688 540 b 625 290 688 397 664 336 l 706 199 l 618 125 l 542 228 b 417 200 504 210 463 200 b 292 226 371 200 329 210 l 215 125 l 128 199 l 208 290 b 146 469 169 338 146 399 b 208 649 146 542 169 603 l 128 740 l 215 814 l 292 711 b 417 739 329 729 371 739 m 417 300 b 572 468 515 300 572 367 b 417 639 572 561 506 639 b 261 471 318 639 261 572 b 417 300 261 378 328 300 "},"¥":{"ha":833,"x_min":0,"x_max":0,"o":"m 424 488 l 708 979 l 813 918 l 540 471 l 703 471 l 703 369 l 485 369 l 485 276 l 703 276 l 703 175 l 485 175 l 485 0 l 353 0 l 353 175 l 133 175 l 133 276 l 353 276 l 353 369 l 133 369 l 133 471 l 296 471 l 22 918 l 133 985 "},"¦":{"ha":417,"x_min":0,"x_max":0,"o":"m 154 357 l 263 357 l 263 -139 l 154 -139 m 154 1069 l 263 1069 l 263 586 l 154 586 "},"§":{"ha":833,"x_min":0,"x_max":0,"o":"m 421 315 b 567 465 506 342 567 392 b 426 611 567 526 528 574 b 274 461 338 585 274 535 b 421 315 274 400 319 353 m 507 271 b 660 92 613 225 660 168 b 389 -100 660 -25 550 -100 b 150 -35 294 -100 217 -79 l 200 60 b 392 0 254 21 318 0 b 542 82 485 0 542 31 b 374 226 542 128 508 168 b 158 449 218 293 158 349 b 335 653 158 542 228 614 b 183 829 233 699 183 749 b 446 1018 183 938 286 1018 b 667 957 525 1018 608 992 l 614 871 b 443 925 574 897 508 925 b 297 839 344 925 297 879 b 486 692 297 789 326 760 b 682 478 625 632 682 569 b 507 271 682 381 615 315 "},"¨":{"ha":558,"x_min":0,"x_max":0,"o":"m 153 843 b 69 926 107 843 69 882 b 153 1010 69 976 101 1010 b 236 926 199 1010 236 971 b 153 843 236 876 204 843 m 406 843 b 322 926 360 843 322 882 b 406 1010 322 976 354 1010 b 489 926 451 1010 489 971 b 406 843 489 876 457 843 "},"©":{"ha":1250,"x_min":0,"x_max":0,"o":"m 490 490 b 653 282 490 364 558 282 b 789 325 703 282 743 299 l 825 224 b 643 175 775 194 715 175 b 372 486 483 175 372 294 b 654 803 372 672 483 803 b 815 765 713 803 765 789 l 776 663 b 653 696 738 682 699 696 b 490 490 558 696 490 621 m 625 71 b 1008 486 874 71 1008 244 b 625 901 1008 729 872 901 b 242 486 376 901 242 728 b 625 71 242 243 378 71 m 624 -17 b 140 486 311 -17 140 197 b 625 989 140 765 317 989 b 1110 486 938 989 1110 775 b 624 -17 1110 207 932 -17 "},"ª":{"ha":833,"x_min":0,"x_max":0,"o":"m 142 713 b 393 982 142 875 256 982 b 526 942 446 982 490 964 l 526 972 l 629 972 l 629 603 b 692 542 629 553 660 542 l 667 454 b 540 521 603 454 561 478 b 382 449 511 489 457 449 b 142 713 260 449 142 542 m 400 546 b 519 607 447 546 489 571 l 519 851 b 404 886 489 871 450 886 b 251 715 319 886 251 825 b 400 546 251 610 324 546 m 181 183 l 181 297 l 653 297 l 653 183 "},"«":{"ha":786,"x_min":0,"x_max":0,"o":"m 303 179 l 83 449 l 83 507 l 303 776 l 383 708 l 186 478 l 383 247 m 581 179 l 361 449 l 361 507 l 581 776 l 661 708 l 464 478 l 661 247 "},"¬":{"ha":833,"x_min":0,"x_max":0,"o":"m 743 167 l 618 167 l 618 418 l 90 418 l 90 532 l 743 532 "},"­":{"ha":833,"x_min":0,"x_max":0,"o":"m 181 419 l 181 533 l 653 533 l 653 419 "},"®":{"ha":1250,"x_min":0,"x_max":0,"o":"m 624 -17 b 140 486 311 -17 140 197 b 625 989 140 765 317 989 b 1110 486 938 989 1110 775 b 624 -17 1110 207 932 -17 m 625 71 b 1008 486 874 71 1008 244 b 625 901 1008 729 872 901 b 242 486 376 901 242 728 b 625 71 242 243 378 71 m 772 185 l 697 351 b 550 444 668 414 621 443 l 550 199 l 440 199 l 440 786 b 607 796 490 792 536 796 b 840 631 753 796 840 740 b 714 483 840 554 797 510 b 808 378 757 464 783 432 l 875 232 m 619 697 b 550 694 594 697 571 696 l 550 543 l 619 543 b 732 624 686 543 732 571 b 619 697 732 667 692 697 "},"¯":{"ha":569,"x_min":0,"x_max":0,"o":"m 83 871 l 83 972 l 486 972 l 486 871 "},"°":{"ha":625,"x_min":0,"x_max":0,"o":"m 179 832 b 271 735 179 776 215 735 b 363 832 326 735 363 769 b 271 929 363 888 326 929 b 179 832 215 929 179 899 m 69 832 b 271 1028 69 944 161 1028 b 472 832 381 1028 472 944 b 271 636 472 719 381 636 b 69 832 161 636 69 719 "},"±":{"ha":833,"x_min":0,"x_max":0,"o":"m 476 547 l 476 360 l 358 360 l 358 547 l 181 547 l 181 656 l 358 656 l 358 844 l 476 844 l 476 656 l 653 656 l 653 547 m 181 100 l 181 214 l 653 214 l 653 100 "},"²":{"ha":625,"x_min":0,"x_max":0,"o":"m 111 383 b 108 433 110 397 108 413 b 401 822 108 640 401 714 b 314 892 401 861 364 892 b 181 836 264 892 224 871 l 115 906 b 325 982 175 954 242 982 b 515 829 440 982 515 915 b 233 476 515 672 258 608 l 517 476 l 517 383 l 111 383 "},"³":{"ha":625,"x_min":0,"x_max":0,"o":"m 285 375 b 99 429 214 375 149 397 l 151 511 b 285 467 190 488 236 467 b 414 553 368 467 414 504 b 251 649 414 604 364 649 l 188 649 l 188 733 l 247 733 b 396 821 354 733 396 781 b 289 893 396 861 349 893 b 165 849 242 893 199 872 l 115 931 b 293 982 160 956 224 982 b 508 829 431 982 508 907 b 425 699 508 768 483 728 b 526 556 490 669 526 618 b 285 375 526 465 453 375 "},"´":{"ha":432,"x_min":0,"x_max":0,"o":"m 56 883 l 318 1057 l 376 940 l 99 799 "},"µ":{"ha":833,"x_min":0,"x_max":0,"o":"m 125 722 l 244 722 l 244 263 b 396 94 244 144 317 94 b 589 176 458 94 528 121 l 589 722 l 708 722 l 708 0 l 593 0 l 593 82 b 376 -17 529 19 451 -17 b 238 40 307 -17 265 6 l 238 -306 l 125 -306 "},"¶":{"ha":1042,"x_min":0,"x_max":0,"o":"m 590 -89 l 590 558 b 488 551 563 554 528 551 b 147 807 276 551 147 649 b 482 1082 147 964 268 1082 b 699 1069 567 1082 633 1076 l 699 -89 m 785 -89 l 785 1069 l 893 1069 l 893 -89 m 481 658 b 590 665 529 658 563 661 l 590 969 b 475 975 554 972 517 975 b 272 814 335 975 272 903 b 481 658 272 722 354 658 "},"·":{"ha":417,"x_min":0,"x_max":0,"o":"m 115 493 b 208 586 115 550 150 586 b 301 493 257 586 301 543 b 208 400 301 438 263 400 b 115 493 158 400 115 443 "},"¸":{"ha":413,"x_min":0,"x_max":0,"o":"m 371 -206 b 181 -339 371 -275 308 -339 b 42 -311 131 -339 83 -331 l 75 -224 b 175 -247 107 -240 140 -247 b 258 -196 222 -247 258 -231 b 101 -132 258 -162 224 -132 l 150 0 l 244 0 l 215 -82 b 371 -206 308 -82 371 -124 "},"¹":{"ha":625,"x_min":0,"x_max":0,"o":"m 401 972 l 401 474 l 513 474 l 513 383 l 157 383 l 157 474 l 290 474 l 290 840 l 176 767 l 113 843 l 322 972 "},"º":{"ha":833,"x_min":0,"x_max":0,"o":"m 571 715 b 418 885 571 808 506 885 b 263 717 319 885 263 818 b 418 546 263 624 329 546 b 571 715 514 546 571 614 m 151 715 b 418 982 151 881 267 982 b 682 717 565 982 682 879 b 418 449 682 554 569 449 b 151 715 264 449 151 557 m 181 183 l 181 297 l 653 297 l 653 183 "},"»":{"ha":786,"x_min":0,"x_max":0,"o":"m 125 247 l 322 478 l 125 708 l 206 776 l 425 507 l 425 449 l 206 179 m 403 247 l 600 478 l 403 708 l 483 776 l 703 507 l 703 449 l 483 179 "},"¼":{"ha":1250,"x_min":0,"x_max":0,"o":"m 318 -3 l 925 1028 l 1008 975 l 401 -56 m 1013 121 l 735 121 l 735 193 l 935 597 l 1033 561 l 863 213 l 1013 213 l 1013 371 l 1119 371 l 1119 213 l 1199 213 l 1199 121 l 1119 121 l 1119 0 l 1013 0 m 340 972 l 340 474 l 451 474 l 451 383 l 96 383 l 96 474 l 229 474 l 229 840 l 115 767 l 51 843 l 261 972 "},"½":{"ha":1250,"x_min":0,"x_max":0,"o":"m 297 -3 l 904 1028 l 988 975 l 381 -56 m 333 972 l 333 474 l 444 474 l 444 383 l 89 383 l 89 474 l 222 474 l 222 840 l 108 767 l 44 843 l 254 972 m 800 0 b 797 50 799 14 797 29 b 1090 439 797 257 1090 331 b 1003 508 1090 478 1053 508 b 869 453 953 508 913 488 l 804 522 b 1014 599 864 571 931 599 b 1204 446 1129 599 1204 532 b 922 93 1204 289 947 225 l 1206 93 l 1206 0 l 800 0 "},"¾":{"ha":1250,"x_min":0,"x_max":0,"o":"m 997 121 l 719 121 l 719 193 l 919 597 l 1018 561 l 847 213 l 997 213 l 997 371 l 1104 371 l 1104 213 l 1183 213 l 1183 121 l 1104 121 l 1104 0 l 997 0 m 304 -3 l 911 1028 l 994 975 l 388 -56 m 253 375 b 67 429 182 375 117 397 l 119 511 b 253 467 158 488 204 467 b 382 553 336 467 382 504 b 219 649 382 604 332 649 l 156 649 l 156 733 l 215 733 b 364 821 322 733 364 781 b 257 893 364 861 317 893 b 133 849 210 893 167 872 l 83 931 b 261 982 128 956 192 982 b 476 829 399 982 476 907 b 393 699 476 768 451 728 b 494 556 458 669 494 618 b 253 375 494 465 421 375 "},"¿":{"ha":682,"x_min":0,"x_max":0,"o":"m 619 -176 b 332 -322 546 -267 460 -322 b 69 -96 178 -322 69 -221 b 343 357 69 140 343 146 l 343 435 l 451 435 b 465 332 461 404 465 364 b 204 -86 465 96 204 76 b 343 -208 204 -151 258 -208 b 529 -104 419 -208 479 -169 m 297 646 b 390 739 297 703 332 739 b 483 646 439 739 483 696 b 390 553 483 590 444 553 b 297 646 340 553 297 596 "},"À":{"ha":928,"x_min":0,"x_max":0,"o":"m 14 35 l 394 972 l 539 972 l 914 35 l 793 -14 l 685 264 l 235 264 l 126 -11 m 276 375 l 642 375 l 460 842 m 583 1019 l 306 1161 l 364 1278 l 626 1104 "},"Á":{"ha":928,"x_min":0,"x_max":0,"o":"m 14 35 l 394 972 l 539 972 l 914 35 l 793 -14 l 685 264 l 235 264 l 126 -11 m 276 375 l 642 375 l 460 842 m 299 1104 l 561 1278 l 619 1161 l 342 1019 "},"Â":{"ha":928,"x_min":0,"x_max":0,"o":"m 14 35 l 394 972 l 539 972 l 914 35 l 793 -14 l 685 264 l 235 264 l 126 -11 m 276 375 l 642 375 l 460 842 m 274 1031 l 214 1139 l 418 1250 l 507 1250 l 710 1139 l 650 1031 l 463 1163 "},"Ã":{"ha":928,"x_min":0,"x_max":0,"o":"m 14 35 l 394 972 l 539 972 l 914 35 l 793 -14 l 685 264 l 235 264 l 126 -11 m 276 375 l 642 375 l 460 842 m 689 1119 b 556 1056 656 1088 613 1056 b 390 1103 483 1056 453 1103 b 289 1053 350 1103 317 1079 l 240 1139 b 385 1211 274 1175 329 1211 b 544 1164 454 1211 486 1164 b 640 1207 585 1164 617 1185 l 689 1119 "},"Ä":{"ha":928,"x_min":0,"x_max":0,"o":"m 14 35 l 394 972 l 539 972 l 914 35 l 793 -14 l 685 264 l 235 264 l 126 -11 m 276 375 l 642 375 l 460 842 m 340 1056 b 257 1139 294 1056 257 1094 b 340 1222 257 1189 289 1222 b 424 1139 386 1222 424 1183 b 340 1056 424 1089 392 1056 m 593 1056 b 510 1139 547 1056 510 1094 b 593 1222 510 1189 542 1222 b 676 1139 639 1222 676 1183 b 593 1056 676 1089 644 1056 "},"Å":{"ha":928,"x_min":0,"x_max":0,"o":"m 290 1053 b 464 1219 290 1150 368 1219 b 638 1053 558 1219 638 1150 b 561 914 638 992 607 943 l 914 35 l 793 -14 l 685 264 l 235 264 l 126 -11 l 14 35 l 369 911 b 290 1053 321 939 290 990 m 276 375 l 642 375 l 460 842 m 397 1053 b 457 972 397 1010 421 975 l 469 972 b 531 1053 506 975 531 1006 b 464 1133 531 1096 506 1133 b 397 1053 424 1133 397 1107 "},"Æ":{"ha":1275,"x_min":0,"x_max":0,"o":"m 7 54 l 583 972 l 1213 972 l 1213 858 l 771 858 l 771 563 l 1150 563 l 1150 451 l 771 451 l 771 114 l 1213 114 l 1213 0 l 643 0 l 643 264 l 283 264 l 114 -12 m 351 375 l 643 375 l 643 849 "},"Ç":{"ha":825,"x_min":0,"x_max":0,"o":"m 644 -206 b 454 -339 644 -275 582 -339 b 315 -311 404 -339 357 -331 l 349 -224 b 449 -247 381 -240 414 -247 b 532 -196 496 -247 532 -231 b 375 -132 532 -162 497 -132 l 419 -10 b 69 482 208 25 69 207 b 515 989 69 779 244 989 b 749 939 608 989 682 971 l 708 828 b 514 874 651 856 594 874 b 204 488 335 874 204 732 b 514 99 204 254 333 99 b 729 158 604 99 667 122 l 769 49 b 511 -17 704 13 621 -14 l 489 -82 b 644 -206 582 -82 644 -124 "},"È":{"ha":771,"x_min":0,"x_max":0,"o":"m 125 972 l 708 972 l 708 858 l 257 858 l 257 563 l 646 563 l 646 451 l 257 451 l 257 114 l 708 114 l 708 0 l 125 0 m 532 1019 l 254 1161 l 313 1278 l 575 1104 "},"É":{"ha":771,"x_min":0,"x_max":0,"o":"m 125 972 l 708 972 l 708 858 l 257 858 l 257 563 l 646 563 l 646 451 l 257 451 l 257 114 l 708 114 l 708 0 l 125 0 m 263 1104 l 525 1278 l 583 1161 l 306 1019 "},"Ê":{"ha":771,"x_min":0,"x_max":0,"o":"m 125 972 l 708 972 l 708 858 l 257 858 l 257 563 l 646 563 l 646 451 l 257 451 l 257 114 l 708 114 l 708 0 l 125 0 m 240 1031 l 181 1139 l 385 1250 l 474 1250 l 676 1139 l 617 1031 l 429 1163 "},"Ë":{"ha":771,"x_min":0,"x_max":0,"o":"m 125 972 l 708 972 l 708 858 l 257 858 l 257 563 l 646 563 l 646 451 l 257 451 l 257 114 l 708 114 l 708 0 l 125 0 m 301 1056 b 218 1139 256 1056 218 1094 b 301 1222 218 1189 250 1222 b 385 1139 347 1222 385 1183 b 301 1056 385 1089 353 1056 m 554 1056 b 471 1139 508 1056 471 1094 b 554 1222 471 1189 503 1222 b 638 1139 600 1222 638 1183 b 554 1056 638 1089 606 1056 "},"Ì":{"ha":382,"x_min":0,"x_max":0,"o":"m 125 0 l 125 972 l 257 972 l 257 0 m 314 1019 l 36 1161 l 94 1278 l 357 1104 "},"Í":{"ha":382,"x_min":0,"x_max":0,"o":"m 125 0 l 125 972 l 257 972 l 257 0 m 26 1104 l 289 1278 l 347 1161 l 69 1019 "},"Î":{"ha":382,"x_min":0,"x_max":0,"o":"m 124 0 l 124 972 l 256 972 l 256 0 m 3 1031 l -57 1139 l 147 1250 l 236 1250 l 439 1139 l 379 1031 l 192 1163 "},"Ï":{"ha":382,"x_min":0,"x_max":0,"o":"m 125 0 l 125 972 l 257 972 l 257 0 m 64 1056 b -19 1139 18 1056 -19 1094 b 64 1222 -19 1189 13 1222 b 147 1139 110 1222 147 1183 b 64 1056 147 1089 115 1056 m 317 1056 b 233 1139 271 1056 233 1094 b 317 1222 233 1189 265 1222 b 400 1139 363 1222 400 1183 b 317 1056 400 1089 368 1056 "},"Ð":{"ha":975,"x_min":0,"x_max":0,"o":"m 14 533 l 153 533 l 153 969 b 424 983 239 978 317 983 b 906 488 756 983 906 760 b 408 -11 906 217 756 -11 b 153 3 303 -11 231 -6 l 153 422 l 14 422 m 419 869 b 285 863 365 869 322 867 l 285 533 l 490 533 l 490 422 l 285 422 l 285 111 b 413 104 324 106 367 104 b 771 488 663 104 771 263 b 419 869 771 688 661 869 "},"Ñ":{"ha":979,"x_min":0,"x_max":0,"o":"m 250 803 l 250 0 l 125 0 l 125 972 l 300 972 l 729 164 l 729 972 l 854 972 l 854 0 l 682 0 m 717 1119 b 583 1056 683 1088 640 1056 b 418 1103 511 1056 481 1103 b 317 1053 378 1103 344 1079 l 268 1139 b 413 1211 301 1175 357 1211 b 572 1164 482 1211 514 1164 b 668 1207 613 1164 644 1185 l 717 1119 "},"Ò":{"ha":1057,"x_min":0,"x_max":0,"o":"m 69 488 b 528 989 69 772 240 989 b 988 488 814 989 988 764 b 528 -17 988 210 815 -17 b 69 488 240 -17 69 210 m 204 488 b 528 97 204 286 324 97 b 853 488 742 97 853 265 b 528 875 853 686 732 875 b 204 488 324 875 204 707 m 651 1019 l 374 1161 l 432 1278 l 694 1104 "},"Ó":{"ha":1057,"x_min":0,"x_max":0,"o":"m 69 488 b 528 989 69 772 240 989 b 988 488 814 989 988 764 b 528 -17 988 210 815 -17 b 69 488 240 -17 69 210 m 204 488 b 528 97 204 286 324 97 b 853 488 742 97 853 265 b 528 875 853 686 732 875 b 204 488 324 875 204 707 m 399 1104 l 661 1278 l 719 1161 l 442 1019 "},"Ô":{"ha":1057,"x_min":0,"x_max":0,"o":"m 69 488 b 528 989 69 772 240 989 b 988 488 814 989 988 764 b 528 -17 988 210 815 -17 b 69 488 240 -17 69 210 m 204 488 b 528 97 204 286 324 97 b 853 488 742 97 853 265 b 528 875 853 686 732 875 b 204 488 324 875 204 707 m 342 1031 l 282 1139 l 486 1250 l 575 1250 l 778 1139 l 718 1031 l 531 1163 "},"Õ":{"ha":1057,"x_min":0,"x_max":0,"o":"m 69 488 b 528 989 69 772 240 989 b 988 488 814 989 988 764 b 528 -17 988 210 815 -17 b 69 488 240 -17 69 210 m 204 488 b 528 97 204 286 324 97 b 853 488 742 97 853 265 b 528 875 853 686 732 875 b 204 488 324 875 204 707 m 763 1119 b 629 1056 729 1088 686 1056 b 464 1103 557 1056 526 1103 b 363 1053 424 1103 390 1079 l 314 1139 b 458 1211 347 1175 403 1211 b 618 1164 528 1211 560 1164 b 714 1207 658 1164 690 1185 l 763 1119 "},"Ö":{"ha":1057,"x_min":0,"x_max":0,"o":"m 69 488 b 528 989 69 772 240 989 b 988 488 814 989 988 764 b 528 -17 988 210 815 -17 b 69 488 240 -17 69 210 m 204 488 b 528 97 204 286 324 97 b 853 488 742 97 853 265 b 528 875 853 686 732 875 b 204 488 324 875 204 707 m 410 1056 b 326 1139 364 1056 326 1094 b 410 1222 326 1189 358 1222 b 493 1139 456 1222 493 1183 b 410 1056 493 1089 461 1056 m 663 1056 b 579 1139 617 1056 579 1094 b 663 1222 579 1189 611 1222 b 746 1139 708 1222 746 1183 b 663 1056 746 1089 714 1056 "},"×":{"ha":833,"x_min":0,"x_max":0,"o":"m 154 665 l 231 742 l 417 553 l 603 742 l 679 665 l 492 478 l 679 292 l 603 217 l 417 403 l 231 217 l 154 292 l 342 478 "},"Ø":{"ha":1057,"x_min":0,"x_max":0,"o":"m 69 488 b 528 989 69 772 240 989 b 701 956 592 989 649 976 l 774 1124 l 888 1071 l 797 903 b 988 488 919 813 988 661 b 528 -17 988 210 815 -17 b 371 8 471 -17 418 -7 l 297 -164 l 183 -111 l 272 57 b 69 488 142 146 69 306 m 204 488 b 329 172 204 364 249 246 l 651 849 b 528 875 617 865 574 875 b 204 488 324 875 204 707 m 853 488 b 739 786 853 601 813 714 l 419 117 b 528 97 451 104 488 97 b 853 488 742 97 853 265 "},"Ù":{"ha":931,"x_min":0,"x_max":0,"o":"m 699 972 l 826 972 l 826 375 b 464 -17 826 129 682 -17 b 104 369 239 -17 104 121 l 104 972 l 236 972 l 236 390 b 464 99 236 204 311 99 b 699 390 621 99 699 200 m 579 1019 l 301 1161 l 360 1278 l 622 1104 "},"Ú":{"ha":931,"x_min":0,"x_max":0,"o":"m 699 972 l 826 972 l 826 375 b 464 -17 826 129 682 -17 b 104 369 239 -17 104 121 l 104 972 l 236 972 l 236 390 b 464 99 236 204 311 99 b 699 390 621 99 699 200 m 326 1104 l 589 1278 l 647 1161 l 369 1019 "},"Û":{"ha":931,"x_min":0,"x_max":0,"o":"m 699 972 l 826 972 l 826 375 b 464 -17 826 129 682 -17 b 104 369 239 -17 104 121 l 104 972 l 236 972 l 236 390 b 464 99 236 204 311 99 b 699 390 621 99 699 200 m 279 1031 l 219 1139 l 424 1250 l 513 1250 l 715 1139 l 656 1031 l 468 1163 "},"Ü":{"ha":931,"x_min":0,"x_max":0,"o":"m 699 972 l 826 972 l 826 375 b 464 -17 826 129 682 -17 b 104 369 239 -17 104 121 l 104 972 l 236 972 l 236 390 b 464 99 236 204 311 99 b 699 390 621 99 699 200 m 342 1056 b 258 1139 296 1056 258 1094 b 342 1222 258 1189 290 1222 b 425 1139 388 1222 425 1183 b 342 1056 425 1089 393 1056 m 594 1056 b 511 1139 549 1056 511 1094 b 594 1222 511 1189 543 1222 b 678 1139 640 1222 678 1183 b 594 1056 678 1089 646 1056 "},"Ý":{"ha":832,"x_min":0,"x_max":0,"o":"m 422 492 l 714 979 l 818 918 l 483 369 l 483 0 l 351 0 l 351 369 l 14 918 l 125 985 m 268 1104 l 531 1278 l 589 1161 l 311 1019 "},"Þ":{"ha":808,"x_min":0,"x_max":0,"o":"m 125 0 l 125 972 l 257 972 l 257 804 b 393 808 300 807 346 808 b 774 513 636 808 774 685 b 365 186 774 304 608 186 b 257 189 315 186 282 188 l 257 0 m 390 697 b 257 692 340 697 296 696 l 257 303 b 382 297 278 300 308 297 b 642 501 547 297 642 376 b 390 697 642 621 551 697 "},"ß":{"ha":875,"x_min":0,"x_max":0,"o":"m 514 -17 b 374 10 457 -17 410 -7 l 401 118 b 510 94 432 103 467 94 b 692 281 615 94 692 164 b 443 489 692 394 601 489 l 443 590 b 665 778 600 590 665 688 b 500 933 665 871 594 933 b 292 576 381 933 292 853 l 292 -306 l 167 -306 l 167 485 b 42 610 167 576 118 610 l 74 722 b 192 663 135 722 169 701 b 511 1044 192 925 321 1044 b 788 797 672 1044 788 932 b 615 551 788 678 732 601 b 819 283 750 506 819 413 b 514 -17 819 113 701 -17 "},"à":{"ha":857,"x_min":0,"x_max":0,"o":"m 63 357 b 404 739 63 572 203 739 b 606 664 488 739 556 706 l 606 722 l 719 722 l 719 175 b 801 90 719 104 761 90 l 775 -7 b 614 101 685 -7 632 31 b 388 -17 571 42 500 -17 b 63 357 207 -17 63 129 m 415 94 b 594 185 485 94 551 132 l 594 572 b 417 631 544 607 483 631 b 190 361 283 631 190 522 b 415 94 190 204 286 94 m 538 799 l 260 940 l 318 1057 l 581 883 "},"á":{"ha":857,"x_min":0,"x_max":0,"o":"m 63 357 b 404 739 63 572 203 739 b 606 664 488 739 556 706 l 606 722 l 719 722 l 719 175 b 801 90 719 104 761 90 l 775 -7 b 614 101 685 -7 632 31 b 388 -17 571 42 500 -17 b 63 357 207 -17 63 129 m 415 94 b 594 185 485 94 551 132 l 594 572 b 417 631 544 607 483 631 b 190 361 283 631 190 522 b 415 94 190 204 286 94 m 276 883 l 539 1057 l 597 940 l 319 799 "},"â":{"ha":857,"x_min":0,"x_max":0,"o":"m 63 357 b 404 739 63 572 203 739 b 606 664 488 739 556 706 l 606 722 l 719 722 l 719 175 b 801 90 719 104 761 90 l 775 -7 b 614 101 685 -7 632 31 b 388 -17 571 42 500 -17 b 63 357 207 -17 63 129 m 415 94 b 594 185 485 94 551 132 l 594 572 b 417 631 544 607 483 631 b 190 361 283 631 190 522 b 415 94 190 204 286 94 m 243 794 l 178 897 l 381 1028 l 469 1028 l 672 897 l 607 794 l 425 940 "},"ã":{"ha":857,"x_min":0,"x_max":0,"o":"m 63 357 b 404 739 63 572 203 739 b 606 664 488 739 556 706 l 606 722 l 719 722 l 719 175 b 801 90 719 104 761 90 l 775 -7 b 614 101 685 -7 632 31 b 388 -17 571 42 500 -17 b 63 357 207 -17 63 129 m 415 94 b 594 185 485 94 551 132 l 594 572 b 417 631 544 607 483 631 b 190 361 283 631 190 522 b 415 94 190 204 286 94 m 656 911 b 522 847 622 879 579 847 b 357 894 450 847 419 894 b 256 844 317 894 283 871 l 207 931 b 351 1003 240 967 296 1003 b 511 956 421 1003 453 956 b 607 999 551 956 583 976 l 656 911 "},"ä":{"ha":857,"x_min":0,"x_max":0,"o":"m 63 357 b 404 739 63 572 203 739 b 606 664 488 739 556 706 l 606 722 l 719 722 l 719 175 b 801 90 719 104 761 90 l 775 -7 b 614 101 685 -7 632 31 b 388 -17 571 42 500 -17 b 63 357 207 -17 63 129 m 415 94 b 594 185 485 94 551 132 l 594 572 b 417 631 544 607 483 631 b 190 361 283 631 190 522 b 415 94 190 204 286 94 m 299 843 b 215 926 253 843 215 882 b 299 1010 215 976 247 1010 b 382 926 344 1010 382 971 b 299 843 382 876 350 843 m 551 843 b 468 926 506 843 468 882 b 551 1010 468 976 500 1010 b 635 926 597 1010 635 971 b 551 843 635 876 603 843 "},"å":{"ha":857,"x_min":0,"x_max":0,"o":"m 63 357 b 404 739 63 572 203 739 b 606 664 488 739 556 706 l 606 722 l 719 722 l 719 175 b 801 90 719 104 761 90 l 775 -7 b 614 101 685 -7 632 31 b 388 -17 571 42 500 -17 b 63 357 207 -17 63 129 m 415 94 b 594 185 485 94 551 132 l 594 572 b 417 631 544 607 483 631 b 190 361 283 631 190 522 b 415 94 190 204 286 94 m 360 975 b 426 894 360 931 386 894 b 493 975 465 894 493 925 b 426 1056 493 1018 468 1056 b 360 975 386 1056 360 1029 m 253 975 b 426 1142 253 1072 331 1142 b 600 975 521 1142 600 1072 b 426 808 600 878 521 808 b 253 975 331 808 253 878 "},"æ":{"ha":1256,"x_min":0,"x_max":0,"o":"m 140 696 b 350 739 204 721 268 739 b 628 579 483 739 578 688 b 889 739 685 681 774 739 b 1200 404 1096 739 1200 588 b 1196 310 1200 371 1199 340 l 690 310 b 915 94 707 175 788 94 b 1124 142 999 94 1063 114 l 1153 35 b 900 -17 1086 4 1003 -17 b 615 151 763 -17 671 47 b 319 -17 554 54 465 -17 b 56 206 161 -17 56 81 b 364 446 56 354 182 446 b 561 421 443 446 500 436 b 338 631 543 553 463 631 b 167 590 271 631 219 614 m 335 94 b 563 319 444 94 547 171 b 368 344 497 338 440 344 b 183 215 256 344 183 290 b 335 94 183 143 250 94 m 886 631 b 689 411 778 631 703 554 l 1085 411 b 886 631 1085 551 1010 631 "},"ç":{"ha":656,"x_min":0,"x_max":0,"o":"m 553 -206 b 363 -339 553 -275 490 -339 b 224 -311 313 -339 265 -331 l 257 -224 b 357 -247 289 -240 322 -247 b 440 -196 404 -247 440 -231 b 283 -132 440 -162 406 -132 l 328 -10 b 63 361 164 22 63 167 b 413 739 63 569 197 739 b 610 696 494 739 553 724 l 572 590 b 419 628 519 617 476 628 b 190 364 289 628 190 529 b 411 94 190 214 279 94 b 582 140 481 94 525 110 l 621 35 b 419 -17 565 4 501 -14 l 397 -82 b 553 -206 490 -82 553 -124 "},"è":{"ha":756,"x_min":0,"x_max":0,"o":"m 190 310 b 415 94 207 175 288 94 b 624 142 499 94 563 114 l 653 35 b 400 -17 586 4 503 -17 b 63 361 193 -17 63 122 b 389 739 63 578 194 739 b 700 404 596 739 700 588 b 696 310 700 371 699 340 m 386 631 b 189 411 278 631 203 554 l 585 411 b 386 631 585 551 510 631 m 517 799 l 239 940 l 297 1057 l 560 883 "},"é":{"ha":756,"x_min":0,"x_max":0,"o":"m 190 310 b 415 94 207 175 288 94 b 624 142 499 94 563 114 l 653 35 b 400 -17 586 4 503 -17 b 63 361 193 -17 63 122 b 389 739 63 578 194 739 b 700 404 596 739 700 588 b 696 310 700 371 699 340 m 386 631 b 189 411 278 631 203 554 l 585 411 b 386 631 585 551 510 631 m 240 883 l 503 1057 l 561 940 l 283 799 "},"ê":{"ha":756,"x_min":0,"x_max":0,"o":"m 190 310 b 415 94 207 175 288 94 b 624 142 499 94 563 114 l 653 35 b 400 -17 586 4 503 -17 b 63 361 193 -17 63 122 b 389 739 63 578 194 739 b 700 404 596 739 700 588 b 696 310 700 371 699 340 m 386 631 b 189 411 278 631 203 554 l 585 411 b 386 631 585 551 510 631 m 213 794 l 147 897 l 350 1028 l 439 1028 l 642 897 l 576 794 l 394 940 "},"ë":{"ha":756,"x_min":0,"x_max":0,"o":"m 190 310 b 415 94 207 175 288 94 b 624 142 499 94 563 114 l 653 35 b 400 -17 586 4 503 -17 b 63 361 193 -17 63 122 b 389 739 63 578 194 739 b 700 404 596 739 700 588 b 696 310 700 371 699 340 m 386 631 b 189 411 278 631 203 554 l 585 411 b 386 631 585 551 510 631 m 271 843 b 188 926 225 843 188 882 b 271 1010 188 976 219 1010 b 354 926 317 1010 354 971 b 271 843 354 876 322 843 m 524 843 b 440 926 478 843 440 882 b 524 1010 440 976 472 1010 b 607 926 569 1010 607 971 b 524 843 607 876 575 843 "},"ì":{"ha":347,"x_min":0,"x_max":0,"o":"m 236 0 l 111 0 l 111 722 l 236 722 m 296 799 l 18 940 l 76 1057 l 339 883 "},"í":{"ha":347,"x_min":0,"x_max":0,"o":"m 236 0 l 111 0 l 111 722 l 236 722 m 15 883 l 278 1057 l 336 940 l 58 799 "},"î":{"ha":347,"x_min":0,"x_max":0,"o":"m 236 0 l 111 0 l 111 722 l 236 722 m -8 794 l -74 897 l 129 1028 l 218 1028 l 421 897 l 356 794 l 174 940 "},"ï":{"ha":347,"x_min":0,"x_max":0,"o":"m 236 0 l 111 0 l 111 722 l 236 722 m 47 843 b -36 926 1 843 -36 882 b 47 1010 -36 976 -4 1010 b 131 926 93 1010 131 971 b 47 843 131 876 99 843 m 300 843 b 217 926 254 843 217 882 b 300 1010 217 976 249 1010 b 383 926 346 1010 383 971 b 300 843 383 876 351 843 "},"ð":{"ha":739,"x_min":0,"x_max":0,"o":"m 253 757 l 335 850 b 182 881 289 869 236 881 b 132 878 168 881 146 879 l 132 990 b 183 993 146 992 168 993 b 411 942 265 993 343 975 l 496 1053 l 575 988 l 492 892 b 683 475 610 803 683 657 b 335 -17 683 182 558 -17 b 35 288 178 -17 35 94 b 329 601 35 482 178 601 b 556 508 429 601 501 558 b 415 801 550 633 499 736 l 333 692 m 344 94 b 556 401 464 94 539 194 b 351 496 501 456 432 496 b 160 297 250 496 160 425 b 344 94 160 168 242 94 "},"ñ":{"ha":822,"x_min":0,"x_max":0,"o":"m 232 601 b 475 739 283 679 364 739 b 718 471 638 739 718 632 l 718 0 l 593 0 l 593 457 b 454 629 593 561 542 629 b 236 478 368 629 289 560 l 236 0 l 111 0 l 111 722 l 232 722 m 651 911 b 518 847 618 879 575 847 b 353 894 446 847 415 894 b 251 844 313 894 279 871 l 203 931 b 347 1003 236 967 292 1003 b 507 956 417 1003 449 956 b 603 999 547 956 579 976 l 651 911 "},"ò":{"ha":831,"x_min":0,"x_max":0,"o":"m 647 361 b 415 628 647 506 547 628 b 183 364 269 628 183 522 b 415 94 183 218 283 94 b 647 361 561 94 647 203 m 56 361 b 415 739 56 594 211 739 b 775 364 617 739 775 593 b 415 -17 775 133 621 -17 b 56 361 208 -17 56 138 m 536 799 l 258 940 l 317 1057 l 579 883 "},"ó":{"ha":831,"x_min":0,"x_max":0,"o":"m 647 361 b 415 628 647 506 547 628 b 183 364 269 628 183 522 b 415 94 183 218 283 94 b 647 361 561 94 647 203 m 56 361 b 415 739 56 594 211 739 b 775 364 617 739 775 593 b 415 -17 775 133 621 -17 b 56 361 208 -17 56 138 m 272 883 l 535 1057 l 593 940 l 315 799 "},"ô":{"ha":831,"x_min":0,"x_max":0,"o":"m 647 361 b 415 628 647 506 547 628 b 183 364 269 628 183 522 b 415 94 183 218 283 94 b 647 361 561 94 647 203 m 56 361 b 415 739 56 594 211 739 b 775 364 617 739 775 593 b 415 -17 775 133 621 -17 b 56 361 208 -17 56 138 m 225 794 l 160 897 l 363 1028 l 451 1028 l 654 897 l 589 794 l 407 940 "},"õ":{"ha":831,"x_min":0,"x_max":0,"o":"m 647 361 b 415 628 647 506 547 628 b 183 364 269 628 183 522 b 415 94 183 218 283 94 b 647 361 561 94 647 203 m 56 361 b 415 739 56 594 211 739 b 775 364 617 739 775 593 b 415 -17 775 133 621 -17 b 56 361 208 -17 56 138 m 635 911 b 501 847 601 879 558 847 b 336 894 429 847 399 894 b 235 844 296 894 263 871 l 186 931 b 331 1003 219 967 275 1003 b 490 956 400 1003 432 956 b 586 999 531 956 563 976 l 635 911 "},"ö":{"ha":831,"x_min":0,"x_max":0,"o":"m 647 361 b 415 628 647 506 547 628 b 183 364 269 628 183 522 b 415 94 183 218 283 94 b 647 361 561 94 647 203 m 56 361 b 415 739 56 594 211 739 b 775 364 617 739 775 593 b 415 -17 775 133 621 -17 b 56 361 208 -17 56 138 m 290 843 b 207 926 244 843 207 882 b 290 1010 207 976 239 1010 b 374 926 336 1010 374 971 b 290 843 374 876 342 843 m 543 843 b 460 926 497 843 460 882 b 543 1010 460 976 492 1010 b 626 926 589 1010 626 971 b 543 843 626 876 594 843 "},"÷":{"ha":833,"x_min":0,"x_max":0,"o":"m 181 419 l 181 533 l 653 533 l 653 419 m 325 761 b 418 854 325 818 360 854 b 511 761 467 854 511 811 b 418 668 511 706 472 668 b 325 761 368 668 325 711 m 325 192 b 418 285 325 249 360 285 b 511 192 467 285 511 242 b 418 99 511 136 472 99 b 325 192 368 99 325 142 "},"ø":{"ha":831,"x_min":0,"x_max":0,"o":"m 56 361 b 415 739 56 594 211 739 b 526 722 454 739 492 733 l 603 885 l 701 833 l 617 681 b 775 364 713 618 775 507 b 415 -17 775 133 621 -17 b 292 3 371 -17 328 -10 l 214 -165 l 115 -114 l 206 47 b 56 361 113 113 56 224 m 647 361 b 560 571 647 444 614 521 l 342 107 b 415 94 361 99 389 94 b 647 361 561 94 647 203 m 183 364 b 263 160 183 283 213 210 l 478 618 b 415 628 461 624 438 628 b 183 364 269 628 183 522 "},"ù":{"ha":839,"x_min":0,"x_max":0,"o":"m 757 -7 b 597 96 668 -7 617 29 b 347 -17 532 29 446 -17 b 104 253 222 -17 104 56 l 104 722 l 229 722 l 229 269 b 371 94 229 157 278 94 b 576 179 447 94 521 128 l 576 722 l 701 722 l 701 188 b 783 90 701 107 742 90 m 511 799 l 233 940 l 292 1057 l 554 883 "},"ú":{"ha":839,"x_min":0,"x_max":0,"o":"m 757 -7 b 597 96 668 -7 617 29 b 347 -17 532 29 446 -17 b 104 253 222 -17 104 56 l 104 722 l 229 722 l 229 269 b 371 94 229 157 278 94 b 576 179 447 94 521 128 l 576 722 l 701 722 l 701 188 b 783 90 701 107 742 90 m 265 883 l 528 1057 l 586 940 l 308 799 "},"û":{"ha":839,"x_min":0,"x_max":0,"o":"m 757 -7 b 597 96 668 -7 617 29 b 347 -17 532 29 446 -17 b 104 253 222 -17 104 56 l 104 722 l 229 722 l 229 269 b 371 94 229 157 278 94 b 576 179 447 94 521 128 l 576 722 l 701 722 l 701 188 b 783 90 701 107 742 90 m 226 794 l 161 897 l 364 1028 l 453 1028 l 656 897 l 590 794 l 408 940 "},"ü":{"ha":839,"x_min":0,"x_max":0,"o":"m 757 -7 b 597 96 668 -7 617 29 b 347 -17 532 29 446 -17 b 104 253 222 -17 104 56 l 104 722 l 229 722 l 229 269 b 371 94 229 157 278 94 b 576 179 447 94 521 128 l 576 722 l 701 722 l 701 188 b 783 90 701 107 742 90 m 282 843 b 199 926 236 843 199 882 b 282 1010 199 976 231 1010 b 365 926 328 1010 365 971 b 282 843 365 876 333 843 m 535 843 b 451 926 489 843 451 882 b 535 1010 451 976 483 1010 b 618 926 581 1010 618 971 b 535 843 618 876 586 843 "},"ý":{"ha":726,"x_min":0,"x_max":0,"o":"m 129 -322 b 7 -294 74 -322 31 -310 l 35 -190 b 132 -214 57 -203 90 -214 b 324 -29 210 -214 268 -175 l 356 54 l 289 54 l 7 689 l 118 739 l 388 138 l 597 733 l 713 689 l 447 -36 b 129 -322 365 -258 268 -322 m 236 883 l 499 1057 l 557 940 l 279 799 "},"þ":{"ha":825,"x_min":0,"x_max":0,"o":"m 111 -306 l 111 972 l 236 972 l 236 647 b 444 739 274 689 346 739 b 763 368 611 739 763 603 b 447 -17 763 138 613 -17 b 236 68 361 -17 285 24 l 236 -306 m 635 364 b 417 631 635 531 536 631 b 236 536 338 631 269 582 l 236 181 b 422 94 283 131 347 94 b 635 364 549 94 635 203 "},"ÿ":{"ha":726,"x_min":0,"x_max":0,"o":"m 129 -322 b 7 -294 74 -322 31 -310 l 35 -190 b 132 -214 57 -203 90 -214 b 324 -29 210 -214 268 -175 l 356 54 l 289 54 l 7 689 l 118 739 l 388 138 l 597 733 l 713 689 l 447 -36 b 129 -322 365 -258 268 -322 m 247 843 b 164 926 201 843 164 882 b 247 1010 164 976 196 1010 b 331 926 293 1010 331 971 b 247 843 331 876 299 843 m 500 843 b 417 926 454 843 417 882 b 500 1010 417 976 449 1010 b 583 926 546 1010 583 971 b 500 843 583 876 551 843 "},"ħ":{"ha":835,"x_min":0,"x_max":0,"o":"m 249 904 l 418 904 l 418 813 l 249 813 l 249 607 b 488 739 300 682 379 739 b 731 471 650 739 731 632 l 731 0 l 606 0 l 606 457 b 468 629 606 561 556 629 b 249 478 382 629 301 560 l 249 0 l 124 0 l 124 813 l 14 813 l 14 904 l 124 904 l 124 1028 l 249 1028 "},"Ĩ":{"ha":382,"x_min":0,"x_max":0,"o":"m 125 0 l 125 972 l 257 972 l 257 0 m 410 1119 b 276 1056 376 1088 333 1056 b 111 1103 204 1056 174 1103 b 10 1053 71 1103 38 1079 l -39 1139 b 106 1211 -6 1175 50 1211 b 265 1164 175 1211 207 1164 b 361 1207 306 1164 338 1185 l 410 1119 "},"ĩ":{"ha":347,"x_min":0,"x_max":0,"o":"m 236 0 l 111 0 l 111 722 l 236 722 m 399 911 b 265 847 365 879 322 847 b 100 894 193 847 163 894 b -1 844 60 894 26 871 l -50 931 b 94 1003 -17 967 39 1003 b 254 956 164 1003 196 956 b 350 999 294 956 326 976 l 399 911 "},"ı":{"ha":347,"x_min":0,"x_max":0,"o":"m 236 0 l 111 0 l 111 722 l 236 722 "},"Ĳ":{"ha":979,"x_min":0,"x_max":0,"o":"m 125 0 l 125 972 l 257 972 l 257 0 m 736 972 l 868 972 l 868 321 b 596 -17 868 85 758 -17 b 382 64 511 -17 432 15 l 446 165 b 592 97 483 126 538 97 b 736 307 681 97 736 154 "},"ĳ":{"ha":707,"x_min":0,"x_max":0,"o":"m 233 0 l 108 0 l 108 722 l 233 722 m 171 846 b 83 933 122 846 83 886 b 171 1021 83 986 117 1021 b 258 933 219 1021 258 981 b 171 846 258 881 225 846 m 474 722 l 599 722 l 599 -79 b 371 -322 599 -249 497 -322 b 229 -290 314 -322 267 -311 l 260 -186 b 356 -214 283 -201 321 -214 b 474 -67 433 -214 474 -162 m 536 846 b 449 933 488 846 449 886 b 536 1021 449 986 482 1021 b 624 933 585 1021 624 981 b 536 846 624 881 590 846 "},"Ĵ":{"ha":597,"x_min":0,"x_max":0,"o":"m 354 972 l 486 972 l 486 321 b 214 -17 486 85 376 -17 b 0 64 129 -17 50 15 l 64 165 b 210 97 101 126 156 97 b 354 307 299 97 354 154 m 231 1031 l 171 1139 l 375 1250 l 464 1250 l 667 1139 l 607 1031 l 419 1163 "},"ĵ":{"ha":363,"x_min":0,"x_max":0,"o":"m 7 794 l -58 897 l 144 1028 l 233 1028 l 436 897 l 371 794 l 189 940 m 126 -67 l 126 722 l 251 722 l 251 -79 b 24 -322 251 -249 150 -322 b -118 -290 -33 -322 -81 -311 l -87 -186 b 8 -214 -64 -201 -26 -214 b 126 -67 86 -214 126 -162 "},"ķ":{"ha":710,"x_min":0,"x_max":0,"o":"m 111 1028 l 236 1028 l 236 440 l 563 736 l 635 657 l 356 410 l 696 69 l 610 -14 l 236 371 l 236 0 l 111 0 m 463 -46 b 296 -311 446 -167 385 -256 l 238 -278 b 358 -17 300 -199 338 -121 "},"ĸ":{"ha":690,"x_min":0,"x_max":0,"o":"m 111 722 l 236 722 l 236 410 l 553 732 l 631 654 l 350 381 l 676 75 l 592 -10 l 236 342 l 236 0 l 111 0 "},"Ŀ":{"ha":710,"x_min":0,"x_max":0,"o":"m 703 0 l 125 0 l 125 972 l 257 972 l 257 118 l 703 118 m 463 411 b 375 499 414 411 375 451 b 463 586 375 551 408 586 b 550 499 511 586 550 546 b 463 411 550 446 517 411 "},"ŀ":{"ha":539,"x_min":0,"x_max":0,"o":"m 229 239 b 347 92 229 139 274 92 b 443 113 382 92 418 101 l 474 11 b 331 -17 440 -4 390 -17 b 104 226 203 -17 104 53 l 104 1028 l 229 1028 m 318 493 b 411 586 318 550 353 586 b 504 493 460 586 504 543 b 411 400 504 438 465 400 b 318 493 361 400 318 443 "},"Ł":{"ha":728,"x_min":0,"x_max":0,"o":"m 721 0 l 143 0 l 143 371 l 46 332 l 7 426 l 143 481 l 143 972 l 275 972 l 275 533 l 567 651 l 606 557 l 275 424 l 275 118 l 721 118 "},"ł":{"ha":515,"x_min":0,"x_max":0,"o":"m 250 610 l 424 690 l 467 597 l 250 497 l 250 239 b 368 92 250 139 294 92 b 464 113 403 92 439 101 l 494 11 b 351 -17 461 -4 411 -17 b 125 226 224 -17 125 53 l 125 439 l 43 401 l 0 494 l 125 553 l 125 1028 l 250 1028 "},"Ń":{"ha":979,"x_min":0,"x_max":0,"o":"m 250 803 l 250 0 l 125 0 l 125 972 l 300 972 l 729 164 l 729 972 l 854 972 l 854 0 l 682 0 m 351 1104 l 614 1278 l 672 1161 l 394 1019 "},"ń":{"ha":822,"x_min":0,"x_max":0,"o":"m 232 601 b 475 739 283 679 364 739 b 718 471 638 739 718 632 l 718 0 l 593 0 l 593 457 b 454 629 593 561 542 629 b 236 478 368 629 289 560 l 236 0 l 111 0 l 111 722 l 232 722 m 278 883 l 540 1057 l 599 940 l 321 799 "},"Œ":{"ha":1275,"x_min":0,"x_max":0,"o":"m 514 989 b 686 972 565 989 631 982 l 1213 972 l 1213 858 l 771 858 l 771 563 l 1150 563 l 1150 451 l 771 451 l 771 114 l 1213 114 l 1213 0 l 685 0 b 514 -17 639 -8 563 -17 b 56 488 226 -17 56 210 b 514 989 56 772 226 989 m 514 97 b 643 113 561 97 603 101 l 643 858 b 514 875 599 871 561 875 b 190 488 310 875 190 707 b 514 97 190 286 310 97 "},"œ":{"ha":1338,"x_min":0,"x_max":0,"o":"m 56 361 b 415 739 56 594 213 739 b 707 579 546 739 643 679 b 971 739 765 683 854 739 b 1282 404 1178 739 1282 588 b 1278 310 1282 371 1281 340 l 772 310 b 997 94 789 175 869 94 b 1206 142 1081 94 1144 114 l 1235 35 b 982 -17 1168 4 1085 -17 b 699 151 844 -17 751 49 b 413 -17 640 51 544 -17 b 56 361 208 -17 56 138 m 968 631 b 771 411 860 631 785 554 l 1167 411 b 968 631 1167 551 1092 631 m 647 361 b 415 628 647 506 547 628 b 183 364 269 628 183 522 b 415 94 183 218 283 94 b 647 361 561 94 647 203 "},"Ŕ":{"ha":857,"x_min":0,"x_max":0,"o":"m 692 -17 l 571 247 b 278 429 510 379 422 429 l 257 429 l 257 0 l 125 0 l 125 969 b 410 983 224 979 307 983 b 767 725 646 983 767 876 b 532 469 767 590 683 510 b 710 269 607 436 653 392 l 815 42 m 410 872 b 257 867 347 872 297 869 l 257 540 l 410 540 b 635 713 543 540 635 601 b 410 872 635 804 554 872 m 272 1104 l 535 1278 l 593 1161 l 315 1019 "},"Ŗ":{"ha":857,"x_min":0,"x_max":0,"o":"m 692 -17 l 571 247 b 278 429 510 379 422 429 l 257 429 l 257 0 l 125 0 l 125 969 b 410 983 224 979 307 983 b 767 725 646 983 767 876 b 532 469 767 590 683 510 b 710 269 607 436 653 392 l 815 42 m 410 872 b 257 867 347 872 297 869 l 257 540 l 410 540 b 635 713 543 540 635 601 b 410 872 635 804 554 872 m 525 -46 b 358 -311 508 -167 447 -256 l 300 -278 b 421 -17 363 -199 400 -121 "},"ŗ":{"ha":554,"x_min":0,"x_max":0,"o":"m 503 601 b 440 613 486 608 464 613 b 236 338 338 613 236 526 l 236 0 l 111 0 l 111 722 l 232 722 l 232 565 b 464 739 267 656 340 739 b 540 731 492 739 521 736 m 231 -99 b 64 -364 214 -219 153 -308 l 6 -331 b 126 -69 68 -251 106 -174 "},"Ř":{"ha":857,"x_min":0,"x_max":0,"o":"m 692 -17 l 571 247 b 278 429 510 379 422 429 l 257 429 l 257 0 l 125 0 l 125 969 b 410 983 224 979 307 983 b 767 725 646 983 767 876 b 532 469 767 590 683 510 b 710 269 607 436 653 392 l 815 42 m 410 872 b 257 867 347 872 297 869 l 257 540 l 410 540 b 635 713 543 540 635 601 b 410 872 635 804 554 872 m 603 1260 l 663 1151 l 460 1040 l 371 1040 l 167 1151 l 226 1260 l 415 1128 "},"ř":{"ha":554,"x_min":0,"x_max":0,"o":"m 503 601 b 440 613 486 608 464 613 b 236 338 338 613 236 526 l 236 0 l 111 0 l 111 722 l 232 722 l 232 565 b 464 739 267 656 340 739 b 540 731 492 739 521 736 m 306 903 l 488 1049 l 553 946 l 350 815 l 261 815 l 58 946 l 124 1049 "},"ȷ":{"ha":363,"x_min":0,"x_max":0,"o":"m 126 -67 l 126 722 l 251 722 l 251 -79 b 24 -322 251 -249 150 -322 b -118 -290 -33 -322 -81 -311 l -87 -186 b 8 -214 -64 -201 -26 -214 b 126 -67 86 -214 126 -162 "},"ˆ":{"ha":633,"x_min":0,"x_max":0,"o":"m 135 794 l 69 897 l 272 1028 l 361 1028 l 564 897 l 499 794 l 317 940 "},"ˇ":{"ha":635,"x_min":0,"x_max":0,"o":"m 317 903 l 499 1049 l 564 946 l 361 815 l 272 815 l 69 946 l 135 1049 "},"˚":{"ha":486,"x_min":0,"x_max":0,"o":"m 176 975 b 243 894 176 931 203 894 b 310 975 282 894 310 925 b 243 1056 310 1018 285 1056 b 176 975 203 1056 176 1029 m 69 975 b 243 1142 69 1072 147 1142 b 417 975 338 1142 417 1072 b 243 808 417 878 338 808 b 69 975 147 808 69 878 "},"˜":{"ha":588,"x_min":0,"x_max":0,"o":"m 518 911 b 385 847 485 879 442 847 b 219 894 313 847 282 894 b 118 844 179 894 146 871 l 69 931 b 214 1003 103 967 158 1003 b 374 956 283 1003 315 956 b 469 999 414 956 446 976 l 518 911 "},"̇":{"ha":286,"x_min":0,"x_max":0,"o":"m 143 846 b 56 933 94 846 56 886 b 143 1021 56 986 89 1021 b 231 933 192 1021 231 981 b 143 846 231 881 197 846 "},"–":{"ha":833,"x_min":0,"x_max":0,"o":"m 97 419 l 97 533 l 736 533 l 736 419 "},"—":{"ha":1042,"x_min":0,"x_max":0,"o":"m 104 419 l 104 533 l 938 533 l 938 419 "},"‘":{"ha":315,"x_min":0,"x_max":0,"o":"m 260 828 b 167 739 260 775 221 739 b 56 863 101 739 56 783 b 196 1086 56 947 107 1039 l 228 1038 b 142 911 179 1004 151 965 b 171 917 151 915 161 917 b 260 828 222 917 260 879 "},"’":{"ha":315,"x_min":0,"x_max":0,"o":"m 56 956 b 149 1044 56 1008 94 1044 b 260 921 214 1044 260 1000 b 119 697 260 836 208 744 l 88 746 b 174 872 136 779 164 818 b 144 867 164 868 154 867 b 56 956 93 867 56 904 "},"‚":{"ha":315,"x_min":0,"x_max":0,"o":"m 56 81 b 149 169 56 133 94 169 b 260 46 214 169 260 125 b 119 -178 260 -39 208 -131 l 88 -129 b 174 -3 136 -96 164 -57 b 144 -8 164 -7 154 -8 b 56 81 93 -8 56 29 "},"“":{"ha":571,"x_min":0,"x_max":0,"o":"m 260 828 b 167 739 260 775 221 739 b 56 863 101 739 56 783 b 196 1086 56 947 107 1039 l 228 1038 b 142 911 179 1004 151 965 b 171 917 151 915 161 917 b 260 828 222 917 260 879 m 515 828 b 422 739 515 775 476 739 b 311 863 357 739 311 783 b 451 1086 311 947 363 1039 l 483 1038 b 397 911 435 1004 407 965 b 426 917 407 915 417 917 b 515 828 478 917 515 879 "},"”":{"ha":571,"x_min":0,"x_max":0,"o":"m 311 956 b 404 1044 311 1008 350 1044 b 515 921 469 1044 515 1000 b 375 697 515 836 464 744 l 343 746 b 429 872 392 779 419 818 b 400 867 419 868 410 867 b 311 956 349 867 311 904 m 56 956 b 149 1044 56 1008 94 1044 b 260 921 214 1044 260 1000 b 119 697 260 836 208 744 l 88 746 b 174 872 136 779 164 818 b 144 867 164 868 154 867 b 56 956 93 867 56 904 "},"„":{"ha":571,"x_min":0,"x_max":0,"o":"m 311 81 b 404 169 311 133 350 169 b 515 46 469 169 515 125 b 375 -178 515 -39 464 -131 l 343 -129 b 429 -3 392 -96 419 -57 b 400 -8 419 -7 410 -8 b 311 81 349 -8 311 29 m 56 81 b 149 169 56 133 94 169 b 260 46 214 169 260 125 b 119 -178 260 -39 208 -131 l 88 -129 b 174 -3 136 -96 164 -57 b 144 -8 164 -7 154 -8 b 56 81 93 -8 56 29 "},"•":{"ha":625,"x_min":0,"x_max":0,"o":"m 313 307 b 126 493 210 307 126 390 b 313 679 126 607 196 679 b 499 493 415 679 499 596 b 313 307 499 379 429 307 "},"‹":{"ha":508,"x_min":0,"x_max":0,"o":"m 303 179 l 83 449 l 83 507 l 303 776 l 383 708 l 186 478 l 383 247 "},"›":{"ha":508,"x_min":0,"x_max":0,"o":"m 125 247 l 322 478 l 125 708 l 206 776 l 425 507 l 425 449 l 206 179 "},"€":{"ha":833,"x_min":0,"x_max":0,"o":"m 294 326 b 554 92 333 182 428 92 b 757 153 644 92 701 121 l 800 51 b 542 -17 751 21 658 -17 b 163 326 342 -17 206 113 l 32 326 l 32 428 l 153 428 l 153 521 l 32 521 l 32 622 l 161 622 b 564 989 201 843 342 989 b 790 935 658 989 731 965 l 756 829 b 568 881 699 861 638 881 b 286 622 419 881 319 786 l 640 622 l 640 521 l 281 521 l 281 428 l 613 428 l 613 326 "},"":{"ha":336,"x_min":0,"x_max":0,"o":"m 281 -99 b 114 -364 264 -219 203 -308 l 56 -331 b 176 -69 118 -251 156 -174 "}}}
